HIERARCHY
ROOT Hips
{
	OFFSET 0 0 0
	CHANNELS 6 Xposition Yposition Zposition Yrotation Xrotation Zrotation
	JOINT Spine
	{
		OFFSET -0 8.37147 -2.66841
		CHANNELS 3 Yrotation Xrotation Zrotation
		JOINT Spine1
		{
			OFFSET -0 8.81736 0
			CHANNELS 3 Yrotation Xrotation Zrotation
			JOINT Spine2
			{
				OFFSET -0 8.81736 0
				CHANNELS 3 Yrotation Xrotation Zrotation
				JOINT Spine3
				{
					OFFSET -0 8.81736 0
					CHANNELS 3 Yrotation Xrotation Zrotation
					JOINT Neck
					{
						OFFSET -0 20.2165 3.66841
						CHANNELS 3 Yrotation Xrotation Zrotation
						JOINT Head
						{
							OFFSET -0 10.4643 0
							CHANNELS 3 Yrotation Xrotation Zrotation
							End Site
							{
								OFFSET 0 15 0
							}
						}
					}
					JOINT LeftShoulder
					{
						OFFSET 1.74406 7.24 3.48811
						CHANNELS 3 Yrotation Xrotation Zrotation
						JOINT LeftArm
						{
							OFFSET 15.166 0 0
							CHANNELS 3 Yrotation Xrotation Zrotation
							JOINT LeftForeArm
							{
								OFFSET 25.1836 0 0
								CHANNELS 3 Yrotation Xrotation Zrotation
								JOINT LeftHand
								{
									OFFSET 23.8595 0 0
									CHANNELS 3 Yrotation Xrotation Zrotation
									End Site
									{
										OFFSET 15 0 0
									}
								}
							}
						}
					}
					JOINT RightShoulder
					{
						OFFSET -1.74406 7.24 3.48811
						CHANNELS 3 Yrotation Xrotation Zrotation
						JOINT RightArm
						{
							OFFSET -15.166 0 0
							CHANNELS 3 Yrotation Xrotation Zrotation
							JOINT RightForeArm
							{
								OFFSET -25.1836 0 0
								CHANNELS 3 Yrotation Xrotation Zrotation
								JOINT RightHand
								{
									OFFSET -23.8595 0 0
									CHANNELS 3 Yrotation Xrotation Zrotation
									End Site
									{
										OFFSET -15 0 0
									}
								}
							}
						}
					}
				}
			}
		}
	}
	JOINT LeftUpLeg
	{
		OFFSET 10.4643 -3.48811 2
		CHANNELS 3 Yrotation Xrotation Zrotation
		JOINT LeftLeg
		{
			OFFSET -0 -38.892 2.44168
			CHANNELS 3 Yrotation Xrotation Zrotation
			JOINT LeftFoot
			{
				OFFSET -0 -41.3956 -2.44168
				CHANNELS 3 Yrotation Xrotation Zrotation
				JOINT LeftToeBase
				{
					OFFSET -0 -6.7338 15.6965
					CHANNELS 3 Yrotation Xrotation Zrotation
					End Site
					{
						OFFSET 0 0 5
					}
				}
			}
		}
	}
	JOINT RightUpLeg
	{
		OFFSET -10.4643 -3.48811 2
		CHANNELS 3 Yrotation Xrotation Zrotation
		JOINT RightLeg
		{
			OFFSET -0 -38.892 2.44168
			CHANNELS 3 Yrotation Xrotation Zrotation
			JOINT RightFoot
			{
				OFFSET -0 -41.3956 -2.44168
				CHANNELS 3 Yrotation Xrotation Zrotation
				JOINT RightToeBase
				{
					OFFSET -0 -6.7338 15.6965
					CHANNELS 3 Yrotation Xrotation Zrotation
					End Site
					{
						OFFSET 0 0 5
					}
				}
			}
		}
	}
}
MOTION
Frames: 11
Frame Time: 0.00833333
-86.106012 91.663940 -22.662662 71.657945 -17.593849 3.867290 1.528437 2.094115 -1.435304 0.699607 3.462312 -1.104966 0.469584 5.545687 -1.256546 -0.581992 7.216986 -1.314421 -18.270345 23.786599 -10.359372 -6.747776 4.056126 0.846223 14.985850 17.314379 0.002872 -37.342863 6.236462 -43.436115 -64.699474 -0.562397 -13.127529 7.400833 -8.287803 -12.901631 -16.795327 10.456096 -7.171955 70.999221 -5.729677 50.913889 50.278906 8.908550 -4.280883 -4.917879 7.756229 25.474016 11.422668 11.716323 0.274953 0.000000 24.623541 0.000000 5.406751 -6.437619 -2.683681 0.000000 -5.310974 0.000000 -17.748378 10.742204 -10.169406 0.000000 28.315783 0.000000 -9.097163 -8.852818 10.177006 0.000000 -12.672289 0.000000
-86.518927 91.979456 -22.768346 71.678674 -16.719092 3.837647 1.520344 2.205771 -1.523044 0.653622 3.644593 -1.147471 0.380543 5.566384 -1.319639 -0.581622 7.010432 -1.044123 -18.183069 22.459775 -10.130244 -6.714772 3.638080 1.202600 15.266824 17.291293 0.433342 -37.554806 5.962173 -43.857106 -64.934628 -0.410166 -13.176605 7.465784 -7.797804 -12.450459 -16.688796 10.414740 -7.359567 70.550576 -5.352690 51.020363 51.116810 9.265831 -4.511357 -4.793992 7.519809 25.546288 11.354579 10.935450 0.113751 0.000000 23.762433 0.000000 5.271310 -5.534424 -2.829696 0.000000 -5.262770 0.000000 -17.788328 9.768268 -9.820426 0.000000 27.780585 0.000000 -8.938759 -7.916837 10.060373 0.000000 -13.058796 0.000000
-86.945905 92.283746 -22.880368 71.697000 -15.876571 3.719482 1.427165 2.515185 -1.601732 0.535587 3.652523 -1.118470 0.397569 5.565368 -1.178811 -0.552621 6.872784 -1.133996 -18.098654 21.344585 -9.609986 -6.751287 2.842082 1.552700 15.654675 17.295859 1.054426 -38.056567 5.757168 -44.215580 -64.999851 -0.808220 -13.153145 7.713612 -7.402569 -11.641989 -16.594398 10.468849 -7.344072 69.934135 -5.132586 51.084642 52.067284 9.498655 -4.652683 -4.980803 7.699021 25.991045 11.477440 10.145513 0.098041 0.000000 22.955666 0.000000 5.029433 -4.667374 -2.964115 0.000000 -5.290465 0.000000 -17.817786 8.871085 -9.388805 0.000000 27.206369 0.000000 -8.742643 -6.986832 9.947011 0.000000 -13.335991 0.000000
-87.412854 92.571698 -22.996040 71.816345 -14.936550 3.583039 1.413944 2.687869 -1.658910 0.485569 3.799857 -1.133106 0.278920 5.589893 -1.118568 -0.563587 6.712451 -0.996791 -17.974183 19.867085 -9.188698 -6.746201 2.385873 1.894268 15.897021 17.244298 1.472394 -38.404178 5.598784 -44.485680 -65.143651 -0.754273 -13.234321 7.805554 -7.100556 -11.357539 -16.511470 10.364066 -7.423549 69.361740 -4.736193 51.317910 53.066754 9.784485 -4.917775 -5.119395 7.916618 26.014274 11.595604 9.181870 0.053339 0.000000 22.205876 0.000000 4.792872 -3.837214 -3.013294 0.000000 -5.302739 0.000000 -17.909233 7.827377 -8.908454 0.000000 26.701215 0.000000 -8.607518 -6.029413 9.894470 0.000000 -13.710394 0.000000
-87.908569 92.845520 -23.111523 71.956271 -13.867094 3.429516 1.379397 2.890340 -1.739422 0.420101 3.845117 -1.120076 0.177666 5.480967 -1.018964 -0.601272 6.657568 -0.913479 -17.913927 18.386021 -8.696216 -6.805757 1.887502 2.125424 16.215887 17.213129 1.970873 -38.930039 5.457881 -44.843606 -65.138346 -0.908539 -13.070135 8.037928 -6.991571 -11.300509 -16.354540 10.283703 -7.474558 68.584846 -4.428757 51.620366 54.149821 10.240057 -5.034283 -5.376318 8.219807 26.297276 11.852773 8.049920 0.022536 0.000000 21.483600 0.000000 4.449264 -3.019179 -2.981583 0.000000 -5.356889 0.000000 -18.014341 6.649520 -8.348653 0.000000 26.209239 0.000000 -8.481576 -5.170053 9.773047 0.000000 -13.909070 0.000000
-88.453369 93.088776 -23.230675 72.124695 -12.758697 3.221497 1.350201 3.199577 -1.795346 0.356836 4.020094 -1.110958 0.088626 5.305489 -0.939319 -0.635861 6.309384 -0.809929 -17.856773 16.936180 -8.031432 -6.902487 1.498067 2.153436 16.543219 17.211487 2.542234 -39.302935 5.184371 -45.225973 -65.122347 -0.723376 -13.289943 8.143509 -6.746872 -11.018434 -16.249058 10.337436 -7.433026 67.640091 -4.089505 51.959201 55.350917 10.913671 -5.181946 -5.611514 8.640799 27.227314 11.980729 6.714040 -0.017940 0.000000 20.988148 0.000000 4.238802 -2.275273 -2.943972 0.000000 -5.408841 0.000000 -18.071850 5.397587 -7.672971 0.000000 25.802861 0.000000 -8.481312 -4.331564 9.617066 0.000000 -14.113338 0.000000
-89.034778 93.311780 -23.377005 72.315050 -11.569413 3.102312 1.359844 3.596277 -1.836080 0.328082 4.149586 -1.120742 -0.043056 5.043376 -0.938541 -0.716236 5.928836 -0.653845 -17.888874 15.424262 -7.568986 -6.980228 1.200178 2.400240 16.855333 17.179686 3.071004 -39.743884 5.069468 -45.688926 -65.030170 -0.728628 -13.308701 8.157060 -6.499807 -10.707354 -16.183161 10.376050 -7.550290 66.695788 -3.953453 52.549313 56.259994 11.393616 -5.704842 -5.318828 8.363161 28.603086 12.143957 5.264804 -0.182783 0.000000 20.523424 0.000000 3.951729 -1.511857 -2.850923 0.000000 -5.443645 0.000000 -18.229073 3.972565 -7.073493 0.000000 25.474545 0.000000 -8.441439 -3.642493 9.430463 0.000000 -14.156362 0.000000
-89.640552 93.521539 -23.504384 72.532945 -10.245412 2.887504 1.316983 3.849059 -1.869109 0.270249 4.170817 -1.077286 -0.128364 4.855431 -0.865758 -0.776659 5.646636 -0.604755 -17.941993 13.949402 -7.004991 -7.070521 0.876742 2.690840 17.159523 17.044348 3.635384 -40.113591 4.907395 -46.073687 -64.977473 -0.606054 -13.597848 8.241125 -6.241110 -10.104123 -16.188557 10.372625 -7.432651 65.969210 -3.542875 52.872280 57.356027 12.058550 -5.788241 -5.492617 8.306566 28.658654 12.387884 3.562199 -0.276772 0.000000 20.213415 0.000000 3.636841 -0.809065 -2.676984 0.000000 -5.516179 0.000000 -18.274324 2.448496 -6.285041 0.000000 25.163490 0.000000 -8.512849 -2.893229 9.277554 0.000000 -14.312563 0.000000
-90.254590 93.699744 -23.652676 72.739085 -8.837139 2.687205 1.253558 4.095134 -1.820583 0.231989 4.125667 -1.056033 -0.145906 4.625567 -0.850068 -0.775590 5.471765 -0.574815 -18.087718 12.225950 -6.277980 -7.230376 0.727582 2.764281 17.455895 17.116879 4.266990 -40.610043 4.536124 -46.298690 -64.721311 -1.065074 -13.780000 8.287265 -5.542025 -9.890674 -16.184341 10.390461 -7.412472 64.777334 -3.383157 53.412095 58.678371 12.860665 -5.714171 -5.644756 8.587986 28.431289 12.494454 1.685247 -0.449766 0.000000 20.080399 0.000000 3.427392 -0.196213 -2.573252 0.000000 -5.546161 0.000000 -18.306420 0.769609 -5.479690 0.000000 24.976905 0.000000 -8.608185 -2.228769 9.176432 0.000000 -14.496862 0.000000
-90.899274 93.862463 -23.792870 73.000628 -7.522522 2.483960 1.217331 4.507033 -1.910643 0.184819 4.251234 -1.031011 -0.264968 4.311114 -0.721526 -0.814228 5.099875 -0.340689 -18.237670 10.518967 -5.790527 -7.357791 0.546363 3.058303 17.817673 16.950980 4.773235 -41.256400 4.457452 -46.803147 -64.491937 -1.247341 -13.889237 8.351579 -4.693632 -9.572661 -16.187665 10.235081 -7.649964 63.739457 -3.081069 54.217630 59.978429 13.238232 -5.862371 -5.704580 9.082808 28.272383 12.499662 -0.138165 -0.632604 0.000000 19.960592 0.000000 3.281339 0.450079 -2.423053 0.000000 -5.561054 0.000000 -18.508651 -0.795434 -4.702173 0.000000 24.733514 0.000000 -8.660753 -1.607679 8.952003 0.000000 -14.492089 0.000000
-91.549445 94.011591 -23.920889 73.345876 -6.045899 2.216479 1.114491 4.842143 -1.966945 0.078890 4.152352 -0.991116 -0.386583 4.084886 -0.476050 -0.846140 4.733054 -0.276516 -18.430143 8.829929 -5.266116 -7.525857 0.338631 3.166053 18.084875 16.874854 5.231564 -41.562476 4.349183 -47.273708 -64.449648 -1.065754 -14.080903 8.395520 -4.390903 -9.189497 -16.150245 10.133259 -7.775810 62.591649 -2.875118 54.977855 61.265809 13.777870 -5.777502 -5.613197 9.465109 28.260474 12.463136 -2.236168 -0.804205 0.000000 19.999092 0.000000 3.194571 1.037034 -2.270306 0.000000 -5.612781 0.000000 -18.600256 -2.467997 -3.759794 0.000000 24.476891 0.000000 -8.936579 -0.991822 8.838753 0.000000 -14.482320 0.000000
